<svg xmlns="http://www.w3.org/2000/svg" width="15.078" height="17.232" viewBox="0 0 15.078 17.232">
  <path id="Icon_awesome-calendar-alt" data-name="Icon awesome-calendar-alt" d="M0,15.616a1.616,1.616,0,0,0,1.615,1.615H13.462a1.616,1.616,0,0,0,1.615-1.615V6.462H0Zm10.77-6.6a.405.405,0,0,1,.4-.4H12.52a.405.405,0,0,1,.4.4v1.346a.405.405,0,0,1-.4.4H11.174a.405.405,0,0,1-.4-.4Zm0,4.308a.405.405,0,0,1,.4-.4H12.52a.405.405,0,0,1,.4.4v1.346a.405.405,0,0,1-.4.4H11.174a.405.405,0,0,1-.4-.4ZM6.462,9.02a.405.405,0,0,1,.4-.4H8.212a.405.405,0,0,1,.4.4v1.346a.405.405,0,0,1-.4.4H6.866a.405.405,0,0,1-.4-.4Zm0,4.308a.405.405,0,0,1,.4-.4H8.212a.405.405,0,0,1,.4.4v1.346a.405.405,0,0,1-.4.4H6.866a.405.405,0,0,1-.4-.4ZM2.154,9.02a.405.405,0,0,1,.4-.4H3.9a.405.405,0,0,1,.4.4v1.346a.405.405,0,0,1-.4.4H2.558a.405.405,0,0,1-.4-.4Zm0,4.308a.405.405,0,0,1,.4-.4H3.9a.405.405,0,0,1,.4.4v1.346a.405.405,0,0,1-.4.4H2.558a.405.405,0,0,1-.4-.4ZM13.462,2.154H11.847V.538A.54.54,0,0,0,11.308,0H10.231a.54.54,0,0,0-.538.538V2.154H5.385V.538A.54.54,0,0,0,4.846,0H3.769a.54.54,0,0,0-.538.538V2.154H1.615A1.616,1.616,0,0,0,0,3.769V5.385H15.078V3.769A1.616,1.616,0,0,0,13.462,2.154Z" fill="#777171"/>
</svg>
