<svg xmlns="http://www.w3.org/2000/svg" width="30" height="30" viewBox="0 0 30 30">
  <g id="Icons" transform="translate(-20 -21)">
    <rect id="Rectangle_13" data-name="Rectangle 13" width="30" height="30" transform="translate(20 21)" fill="#fff" opacity="0"/>
    <g id="bank" transform="translate(23 24)">
      <path id="Path_42545" data-name="Path 42545" d="M21.891,9.891a.7.7,0,0,0,.5-.206A5.453,5.453,0,0,0,24,6.375a.706.706,0,0,0-.388-.628L12.315.075a.7.7,0,0,0-.631,0L.388,5.747A.707.707,0,0,0,0,6.375a5.453,5.453,0,0,0,1.612,3.31.712.712,0,0,0,.5.206h.7v9.891h-.7a.7.7,0,0,0-.5.206A5.453,5.453,0,0,0,0,23.3a.7.7,0,0,0,.7.7H23.3a.7.7,0,0,0,.7-.7,5.453,5.453,0,0,0-1.612-3.31.7.7,0,0,0-.5-.206h-.7V9.891ZM12,1.49l8.329,4.182H3.671Zm9.582,19.7a5.049,5.049,0,0,1,.869,1.406H1.549a5.05,5.05,0,0,1,.869-1.406ZM4.219,19.782V9.891H5.625v9.891Zm2.813,0V9.891H9.891v9.891Zm4.266,0V9.891H12.7v9.891Zm2.813,0V9.891h2.859v9.891Zm4.266,0V9.891h1.406v9.891ZM2.418,8.485a5.045,5.045,0,0,1-.869-1.407h20.9a5.044,5.044,0,0,1-.869,1.407Z" fill="#1040ba"/>
    </g>
  </g>
</svg>
