<svg xmlns="http://www.w3.org/2000/svg" width="35.882" height="41.008" viewBox="0 0 35.882 41.008">
  <path id="Icon_awesome-calendar-check" data-name="Icon awesome-calendar-check" d="M34.921,12.815H.961A.961.961,0,0,1,0,11.854V8.97A3.844,3.844,0,0,1,3.844,5.126H7.689V.961A.961.961,0,0,1,8.65,0h3.2a.961.961,0,0,1,.961.961V5.126H23.067V.961A.961.961,0,0,1,24.028,0h3.2a.961.961,0,0,1,.961.961V5.126h3.844A3.844,3.844,0,0,1,35.882,8.97v2.883A.961.961,0,0,1,34.921,12.815ZM.961,15.378h33.96a.961.961,0,0,1,.961.961V37.163a3.844,3.844,0,0,1-3.844,3.844H3.844A3.844,3.844,0,0,1,0,37.163V16.339A.961.961,0,0,1,.961,15.378Zm26.695,7.685L25.4,20.788a.961.961,0,0,0-1.359-.005l-8.493,8.425-3.683-3.713a.961.961,0,0,0-1.359-.005L8.231,27.746A.961.961,0,0,0,8.226,29.1l6.616,6.669a.961.961,0,0,0,1.359.005l11.45-11.358A.961.961,0,0,0,27.656,23.063Z" fill="#1f2250"/>
</svg>
