<svg xmlns="http://www.w3.org/2000/svg" width="9.3" height="10.628" viewBox="0 0 9.3 10.628">
  <path id="Icon_awesome-calendar" data-name="Icon awesome-calendar" d="M.249,3.986h8.8a.25.25,0,0,1,.249.249v5.4a1,1,0,0,1-1,1H1a1,1,0,0,1-1-1v-5.4A.25.25,0,0,1,.249,3.986ZM9.3,3.072V2.325a1,1,0,0,0-1-1h-1V.249A.25.25,0,0,0,7.058,0h-.83a.25.25,0,0,0-.249.249V1.329H3.321V.249A.25.25,0,0,0,3.072,0h-.83a.25.25,0,0,0-.249.249V1.329H1a1,1,0,0,0-1,1v.747a.25.25,0,0,0,.249.249h8.8A.25.25,0,0,0,9.3,3.072Z" transform="translate(0)"/>
</svg>
