<svg xmlns="http://www.w3.org/2000/svg" width="15.75" height="13.997" viewBox="0 0 15.75 13.997">
  <path id="Icon_awesome-edit" data-name="Icon awesome-edit" d="M11.009,2.275l2.466,2.466a.267.267,0,0,1,0,.377L7.5,11.091l-2.537.282a.532.532,0,0,1-.588-.588l.282-2.537,5.972-5.972a.267.267,0,0,1,.377,0Zm4.43-.626L14.1.314a1.069,1.069,0,0,0-1.509,0l-.968.968a.267.267,0,0,0,0,.377l2.466,2.466a.267.267,0,0,0,.377,0l.968-.968a1.069,1.069,0,0,0,0-1.509ZM10.5,9.466V12.25H1.75V3.5H8.034a.336.336,0,0,0,.232-.1L9.36,2.311a.328.328,0,0,0-.232-.561H1.313A1.313,1.313,0,0,0,0,3.063v9.625A1.313,1.313,0,0,0,1.313,14h9.625a1.313,1.313,0,0,0,1.313-1.312V8.373a.329.329,0,0,0-.561-.232L10.6,9.234A.336.336,0,0,0,10.5,9.466Z" transform="translate(0 -0.003)" fill="#3313dc"/>
</svg>
