<svg xmlns="http://www.w3.org/2000/svg" width="12.516" height="15.654" viewBox="0 0 12.516 15.654">
  <g id="Icon_ionic-ios-notifications" data-name="Icon ionic-ios-notifications" transform="translate(-6.761 -3.93)">
    <path id="Path_44076" data-name="Path 44076" d="M16.49,30.41a1.844,1.844,0,0,0,1.882-2.074H14.6A1.845,1.845,0,0,0,16.49,30.41Z" transform="translate(-3.479 -10.825)" fill="#fff"/>
    <path id="Path_44077" data-name="Path 44077" d="M19.118,15.523c-.6-.794-1.788-1.26-1.788-4.816,0-3.65-1.612-5.118-3.114-5.47-.141-.035-.243-.082-.243-.231V4.893a.955.955,0,1,0-1.909,0v.113c0,.145-.1.2-.243.231-1.506.356-3.114,1.819-3.114,5.47,0,3.556-1.185,4.018-1.788,4.816a.777.777,0,0,0,.622,1.244H18.5A.777.777,0,0,0,19.118,15.523Z" transform="translate(0 0)" fill="#fff"/>
  </g>
</svg>
