<svg id="MC" xmlns="http://www.w3.org/2000/svg" width="21.949" height="13.689" viewBox="0 0 21.949 13.689">
  <path id="Path_261" data-name="Path 261" d="M13.941,1.464H8.006V12.225h5.935Z" fill="#ff5f00"/>
  <path id="Path_262" data-name="Path 262" d="M8.383,6.847a6.855,6.855,0,0,1,2.591-5.382,6.752,6.752,0,0,0-9.941,1.75,6.9,6.9,0,0,0,0,7.261A6.8,6.8,0,0,0,3.818,13a6.734,6.734,0,0,0,7.156-.775,6.855,6.855,0,0,1-2.591-5.38Z" fill="#eb001b"/>
  <path id="Path_263" data-name="Path 263" d="M21.949,6.845a6.889,6.889,0,0,1-1.033,3.631A6.8,6.8,0,0,1,18.13,13a6.734,6.734,0,0,1-7.156-.776,6.878,6.878,0,0,0,0-10.762,6.752,6.752,0,0,1,9.942,1.749,6.889,6.889,0,0,1,1.033,3.631Z" fill="#f79e1b"/>
</svg>
