<svg xmlns="http://www.w3.org/2000/svg" xmlns:xlink="http://www.w3.org/1999/xlink" width="35.606" height="37.074" viewBox="0 0 35.606 37.074">
  <defs>
    <filter id="notifications_FILL0_wght400_GRAD0_opsz48" x="0" y="0" width="35.606" height="37.074" filterUnits="userSpaceOnUse">
      <feOffset dy="3" input="SourceAlpha"/>
      <feGaussianBlur stdDeviation="3" result="blur"/>
      <feFlood flood-color="#302c28" flood-opacity="0.18"/>
      <feComposite operator="in" in2="blur"/>
      <feComposite in="SourceGraphic"/>
    </filter>
  </defs>
  <g id="Group_37959" data-name="Group 37959" transform="translate(-312.697 -63.463)">
    <g transform="matrix(1, 0, 0, 1, 312.7, 63.46)" filter="url(#notifications_FILL0_wght400_GRAD0_opsz48)">
      <path id="notifications_FILL0_wght400_GRAD0_opsz48-2" data-name="notifications_FILL0_wght400_GRAD0_opsz48" d="M8,20.213V18.782h2.311v-7.3a5.271,5.271,0,0,1,1.362-3.564,6.033,6.033,0,0,1,3.59-1.967V5.264a1.106,1.106,0,0,1,.454-.906,1.83,1.83,0,0,1,2.173,0,1.106,1.106,0,0,1,.454.906v.691a6.1,6.1,0,0,1,3.6,1.967,5.241,5.241,0,0,1,1.376,3.564v7.3h2.283v1.431ZM16.8,13.179Zm0,9.894a2.308,2.308,0,0,1-1.541-.56,1.71,1.71,0,0,1-.66-1.347H19a1.724,1.724,0,0,1-.646,1.347A2.293,2.293,0,0,1,16.8,23.074Zm-4.842-4.292h9.711v-7.3a3.867,3.867,0,0,0-1.4-3,5.008,5.008,0,0,0-3.439-1.24,5.06,5.06,0,0,0-3.453,1.24,3.852,3.852,0,0,0-1.417,3Z" transform="translate(1 2)" fill="#333"/>
    </g>
    <circle id="Ellipse_38" data-name="Ellipse 38" cx="3.5" cy="3.5" r="3.5" transform="translate(332 70)" fill="#fe4204"/>
  </g>
</svg>
