<svg id="Icon_ionic-ios-person" data-name="Icon ionic-ios-person" xmlns="http://www.w3.org/2000/svg" width="11.999" height="12" viewBox="0 0 11.999 12">
  <path id="Icon_ionic-ios-person-2" data-name="Icon ionic-ios-person" d="M13.994,13.7c-.225-.994-1.509-1.478-1.953-1.634a14.562,14.562,0,0,0-1.628-.312,1.654,1.654,0,0,1-.753-.347,6.582,6.582,0,0,1-.05-1.541,4.635,4.635,0,0,0,.356-.678A8.747,8.747,0,0,0,10.228,8s.256,0,.347-.45A4.427,4.427,0,0,0,10.806,6.5c-.019-.359-.216-.35-.216-.35a5.479,5.479,0,0,0,.212-1.6A2.575,2.575,0,0,0,8,2,2.563,2.563,0,0,0,5.2,4.55a5.715,5.715,0,0,0,.209,1.6s-.2-.009-.216.35A4.427,4.427,0,0,0,5.425,7.55c.088.45.347.45.347.45a8.747,8.747,0,0,0,.262,1.184,4.635,4.635,0,0,0,.356.678,6.582,6.582,0,0,1-.05,1.541,1.654,1.654,0,0,1-.753.347,14.562,14.562,0,0,0-1.628.313c-.444.156-1.728.641-1.953,1.634a.25.25,0,0,0,.247.3h11.5A.249.249,0,0,0,13.994,13.7Z" transform="translate(-2 -2)" fill="#1F2250"/>
</svg>
