<svg xmlns="http://www.w3.org/2000/svg" width="19.491" height="17.998" viewBox="0 0 19.491 17.998">
  <g id="Icon_ionic-ios-book" data-name="Icon ionic-ios-book" transform="translate(0)">
    <path id="Path_44073" data-name="Path 44073" d="M6.844,3c2.536,0,4.688,1.308,4.688,3.844V7.6h0V20.906a.092.092,0,0,1-.178.033v0A4.408,4.408,0,0,0,7.5,17.63a5.95,5.95,0,0,0-4.364,1.739.505.505,0,0,1-.309.136H2.611c-.173,0-.356-.127-.356-.286V5.634C2.25,4.13,4.308,3,6.844,3Z" transform="translate(-2.255 -3)" fill="#1F2250"/>
    <path id="Path_44074" data-name="Path 44074" d="M17.156,3c-2.536,0-4.687,1.308-4.687,3.844v.75h0V20.9a.092.092,0,0,0,.178.033v0a4.453,4.453,0,0,1,3.858-3.3,5.94,5.94,0,0,1,4.364,1.739.533.533,0,0,0,.309.136h.211c.173,0,.356-.127.356-.286V5.625C21.75,4.125,19.692,3,17.156,3Z" transform="translate(-2.255 -3)" fill="#1F2250"/>
  </g>
</svg>
