<svg id="XMLID_2_" xmlns="http://www.w3.org/2000/svg" width="16.944" height="16.947" viewBox="0 0 16.944 16.947">
  <path id="XMLID_2_2" data-name="XMLID_2_" d="M2.009,10.655.951,11.713a3.122,3.122,0,0,0-.078,4.352q.02.022.042.042a3.134,3.134,0,0,0,4.352-.078l1.059-1.059,5.966-2.44.008,0,3.18-1.3A2.179,2.179,0,0,0,16.934,9.64a2.772,2.772,0,0,0-.913-2.424,3.223,3.223,0,0,0-2.349-.9,2.888,2.888,0,0,0-.762-2.212q-.022-.024-.046-.046A2.89,2.89,0,0,0,10.652,3.3a3.221,3.221,0,0,0-.9-2.349A2.968,2.968,0,0,0,7.723,0a1.973,1.973,0,0,0-.39.038A2.179,2.179,0,0,0,5.744,1.494l-1.3,3.182,0,.006Zm4.2,2.565,3.425-2.631.874.874ZM4.9,12.129l-.054-.054,2.728-3.55.876.876ZM3.775,10.734,5.514,6.468l.87.87Zm.315,4.118a1.47,1.47,0,0,1-2.018.056,1.463,1.463,0,0,1,.057-2.018l.589-.588,1.962,1.962Zm10.754-6.46a1.231,1.231,0,0,1,.458.918c-.036.181-.3.313-.453.376l-2.67,1.092L10.966,9.565l1.72-1.321A1.9,1.9,0,0,1,14.844,8.393ZM11.71,5.263a1.228,1.228,0,0,1-.03,1.655l-1.9,1.461L8.594,7.194l1.461-1.9A1.229,1.229,0,0,1,11.71,5.263ZM7.285,2.123c.063-.154.2-.417.376-.453a1.232,1.232,0,0,1,.918.458,1.9,1.9,0,0,1,.149,2.158L7.407,6.007,6.2,4.8Z" transform="translate(-0.028)" fill="#1F2250"/>
</svg>
