<svg id="Group_42694" data-name="Group 42694" xmlns="http://www.w3.org/2000/svg" width="13.154" height="55.389" viewBox="0 0 13.154 55.389">
  <path id="Icon_awesome-book-open" data-name="Icon awesome-book-open" d="M12.382,1.126A12.7,12.7,0,0,0,7.108,2.4a.351.351,0,0,0-.166.3v8.31a.361.361,0,0,0,.532.308,13.928,13.928,0,0,1,4.994-1.071.712.712,0,0,0,.686-.7V1.827a.716.716,0,0,0-.771-.7ZM6.046,2.4A12.7,12.7,0,0,0,.771,1.126a.716.716,0,0,0-.771.7V9.542a.712.712,0,0,0,.686.7,13.927,13.927,0,0,1,5,1.072.36.36,0,0,0,.53-.307V2.692A.344.344,0,0,0,6.046,2.4Z" transform="translate(0 -1.125)" fill="#8a8b97"/>
  <line id="Line_66" data-name="Line 66" y2="41.573" transform="translate(6.577 13.316)" fill="none" stroke="#8a8b97" stroke-linecap="round" stroke-width="1"/>
</svg>
