<svg xmlns="http://www.w3.org/2000/svg" width="17.8" height="15.575" viewBox="0 0 17.8 15.575">
  <path id="Icon_awesome-wallet" data-name="Icon awesome-wallet" d="M16.034,5.588H2.781a.556.556,0,0,1,0-1.113h13.35a.556.556,0,0,0,.556-.556A1.669,1.669,0,0,0,15.019,2.25H2.225A2.225,2.225,0,0,0,0,4.475V15.6a2.225,2.225,0,0,0,2.225,2.225H16.034A1.721,1.721,0,0,0,17.8,16.156v-8.9A1.721,1.721,0,0,0,16.034,5.588Zm-1.571,7.231a1.113,1.113,0,1,1,1.113-1.113A1.113,1.113,0,0,1,14.463,12.819Z" transform="translate(0 -2.25)" fill="currentColor"/>
</svg>
